<?xml version="1.0" encoding="utf-8" ?>
<svg baseProfile="full" height="1024" version="1.1" width="1024" xmlns="http://www.w3.org/2000/svg" xmlns:ev="http://www.w3.org/2001/xml-events" xmlns:xlink="http://www.w3.org/1999/xlink"><defs /><path d="M 816,888 817,887 825,887 826,888 827,888 831,892 831,893 832,894 832,902 831,903 831,904 827,908 826,908 825,909 824,909 823,910 819,910 818,909 817,909 815,907 814,907 813,906 813,905 811,903 811,901 810,900 810,895 811,894 811,893 812,892 812,891 815,888Z" fill="black" /><path d="M 872,887 873,886 892,886 893,887 894,887 900,893 900,895 901,896 901,900 900,901 900,903 899,904 899,905 896,908 895,908 894,909 893,909 892,910 872,910 871,909 869,909 864,904 864,903 863,902 863,894 864,893 864,892 868,888 869,888 870,887Z" fill="black" /><path d="M 129,887 130,886 148,886 149,887 151,887 153,889 154,889 155,890 155,891 157,893 157,894 158,895 158,901 157,902 157,903 156,904 156,905 153,908 152,908 151,909 150,909 149,910 129,910 128,909 127,909 126,908 125,908 121,904 121,902 120,901 120,896 121,895 121,893 127,887Z" fill="black" /><path d="M 433,785 432,786 432,788 431,789 431,791 430,792 430,794 429,795 429,797 428,798 428,800 427,801 427,803 426,804 426,806 425,807 425,809 424,810 424,812 423,813 423,816 422,817 422,819 421,820 421,822 420,823 420,826 419,827 419,828 418,829 418,831 417,832 417,835 416,836 416,838 415,839 415,841 414,842 414,844 413,845 413,847 412,848 412,850 411,851 411,853 410,854 410,856 409,857 409,859 408,860 408,862 407,863 407,865 406,866 406,868 405,869 405,871 404,872 404,874 403,875 343,875 342,876 341,876 341,877 402,877 403,878 404,877 405,877 406,878 623,878 624,877 678,877 678,876 677,875 617,875 616,874 616,872 615,871 615,869 614,868 614,866 613,865 613,863 612,862 612,860 611,859 611,858 610,857 610,854 609,853 609,851 608,850 608,848 607,847 607,845 606,844 606,842 605,841 605,839 604,838 604,835 603,834 603,832 602,831 602,829 601,828 601,825 600,824 600,822 599,821 599,818 598,817 598,815 597,814 597,811 596,810 596,808 595,807 595,805 594,804 594,802 593,801 593,799 592,798 592,796 591,795 591,793 590,792 590,789 589,788 589,786 588,785Z" fill="black" /><path d="M 508,674 509,673 511,673 512,674 518,674 519,675 521,675 522,676 523,676 524,677 525,677 534,686 534,687 535,688 535,689 536,690 536,691 537,692 537,695 538,696 538,705 537,706 537,709 536,710 536,711 535,712 535,713 534,714 534,715 532,717 532,718 528,722 527,722 525,724 524,724 523,725 522,725 521,726 519,726 518,727 514,727 513,728 508,728 507,727 503,727 502,726 501,726 500,725 499,725 498,724 497,724 496,723 495,723 487,715 487,714 486,713 486,712 485,711 485,710 484,709 484,706 483,705 483,696 484,695 484,692 485,691 485,690 486,689 486,688 487,687 487,686 496,677 497,677 498,676 499,676 500,675 502,675 503,674Z" fill="black" /><path d="M 154,649 153,650 153,704 154,705 154,709 155,710 155,713 156,714 156,716 157,717 157,718 158,719 158,721 159,722 159,723 160,724 160,725 162,727 162,728 164,730 164,731 176,743 177,743 179,745 180,745 181,746 182,746 184,748 185,748 186,749 188,749 189,750 190,750 191,751 193,751 194,752 199,752 200,753 822,753 823,752 827,752 828,751 830,751 831,750 832,750 833,749 834,749 835,748 836,748 837,747 838,747 839,746 840,746 842,744 843,744 848,739 849,739 850,738 850,737 855,732 855,731 858,728 858,727 859,726 859,725 861,723 861,722 862,721 862,720 863,719 863,717 864,716 864,715 865,714 865,711 866,710 866,707 867,706 867,649 179,649 178,650 177,649Z" fill="black" /><path d="M 209,569 208,570 207,570 204,573 204,574 203,575 203,577 202,578 202,582 203,583 203,584 204,585 204,586 206,588 207,588 208,589 209,589 210,590 273,590 274,589 276,589 280,585 280,584 281,583 281,576 280,575 280,574 276,570 275,570 274,569Z" fill="black" /><path d="M 209,525 208,526 207,526 204,529 204,530 203,531 203,532 202,533 202,538 203,539 203,540 204,541 204,542 207,545 209,545 210,546 273,546 274,545 275,545 276,544 277,544 279,542 279,541 281,539 281,533 280,532 280,530 277,527 276,527 274,525Z" fill="black" /><path d="M 738,494 737,495 735,495 731,499 731,500 730,501 730,508 732,510 732,511 742,521 743,521 761,539 761,540 731,570 731,571 730,572 730,579 731,580 731,581 734,584 735,584 736,585 742,585 743,584 744,584 759,569 760,569 775,554 805,584 806,584 807,585 811,585 812,584 814,584 818,580 818,579 819,578 819,572 817,570 817,569 789,541 789,540 800,529 800,528 801,527 802,527 804,525 804,524 805,523 806,523 817,512 817,511 819,509 819,507 820,506 820,503 819,502 819,500 817,498 817,497 816,496 815,496 814,495 813,495 812,494 808,494 807,495 806,495 775,526 768,519 768,518 767,518 765,516 765,515 760,510 759,510 745,496 744,496 743,495 742,495 741,494Z" fill="black" /><path d="M 586,457 587,456 635,456 636,457 636,500 634,502 587,502 586,501Z" fill="black" /><path d="M 514,457 515,456 562,456 563,457 563,500 561,502 560,501 552,501 551,502 547,502 546,501 545,502 544,501 543,502 542,502 541,501 540,502 539,502 538,501 537,502 528,502 527,501 516,501 515,502 514,501 514,484 513,483 513,476 514,475 514,474 513,473 514,472Z" fill="black" /><path d="M 441,457 442,456 489,456 490,457 490,501 489,502 484,502 483,501 482,501 481,502 443,502 441,500Z" fill="black" /><path d="M 740,446 739,447 738,447 737,448 736,448 735,449 735,450 733,452 733,460 734,461 734,462 736,464 737,464 739,466 741,466 742,467 807,467 808,466 811,466 813,464 814,464 815,463 815,462 817,460 817,453 816,452 816,451 812,447 811,447 810,446Z" fill="black" /><path d="M 222,442 223,441 261,441 262,442 262,480 261,481 223,481 222,480Z" fill="black" /><path d="M 261,420 260,421 213,421 212,422 210,422 208,424 207,424 205,426 205,427 203,429 203,430 202,431 202,433 201,434 201,489 202,490 202,491 203,492 203,493 204,494 204,495 207,498 208,498 210,500 212,500 213,501 271,501 272,500 273,500 274,499 275,499 280,494 280,493 281,492 281,491 282,490 282,485 283,484 283,435 282,434 282,432 281,431 281,429 275,423 274,423 273,422 272,422 271,421 265,421 264,420 263,420 262,421Z" fill="black" /><path d="M 772,411 771,412 770,412 767,415 767,416 766,417 766,422 767,423 767,424 769,426 770,426 771,427 773,427 774,428 776,428 777,427 778,427 779,426 780,426 782,424 782,423 783,422 783,417 782,416 782,415 779,412 778,412 777,411Z" fill="black" /><path d="M 586,390 587,389 635,389 636,390 636,433 635,434 634,434 633,433 587,433 586,432Z" fill="black" /><path d="M 514,390 515,389 562,389 563,390 563,432 562,433 516,433 515,434 513,432 514,431Z" fill="black" /><path d="M 443,389 489,389 490,390 490,432 489,433 454,433 453,434 443,434 441,432 441,391Z" fill="black" /><path d="M 741,376 740,377 739,377 738,378 737,378 734,381 734,382 733,383 733,391 735,393 735,394 736,395 737,395 738,396 739,396 740,397 810,397 811,396 812,396 816,392 816,391 817,390 817,384 816,383 816,382 815,381 815,380 814,379 813,379 811,377 809,377 808,376Z" fill="black" /><path d="M 211,376 210,377 208,377 207,378 206,378 204,380 204,381 203,382 203,383 202,384 202,389 203,390 203,391 204,392 204,393 207,396 208,396 209,397 274,397 275,396 276,396 280,392 280,390 281,389 281,384 280,383 280,382 279,381 279,380 277,378 276,378 275,377 273,377 272,376Z" fill="black" /><path d="M 742,332 741,333 739,333 738,334 737,334 734,337 734,338 733,339 733,346 734,347 734,348 737,351 738,351 739,352 740,352 741,353 809,353 810,352 811,352 812,351 813,351 816,348 816,347 817,346 817,339 816,338 816,337 812,333 810,333 809,332Z" fill="black" /><path d="M 211,332 210,333 208,333 203,338 203,339 202,340 202,345 203,346 203,347 204,348 204,349 206,351 207,351 208,352 209,352 210,353 272,353 273,352 275,352 276,351 277,351 279,349 279,348 280,347 280,346 281,345 281,340 280,339 280,338 279,337 279,336 277,334 276,334 275,333 274,333 273,332Z" fill="black" /><path d="M 586,323 587,322 635,322 636,323 636,366 635,367 587,367 586,366Z" fill="black" /><path d="M 513,323 514,322 562,322 563,323 563,366 562,367 515,367 513,365Z" fill="black" /><path d="M 441,323 442,322 489,322 490,323 490,366 489,367 442,367 441,366Z" fill="black" /><path d="M 213,278 212,279 210,279 209,280 208,280 203,285 203,286 202,287 202,290 201,291 201,295 202,296 202,298 203,299 203,300 204,301 204,302 205,303 206,303 208,305 209,305 210,306 212,306 213,307 270,307 271,306 273,306 274,305 275,305 276,304 277,304 279,302 279,301 281,299 281,298 282,297 282,288 281,287 281,286 279,284 279,283 277,281 276,281 275,280 274,280 273,279 271,279 270,278Z" fill="black" /><path d="M 443,252 635,252 636,253 636,298 635,299 587,299 586,298 586,281 585,280 585,278 581,274 580,274 579,273 575,273 574,272 573,273 570,273 569,274 568,274 564,278 564,279 563,280 563,298 562,299 515,299 514,298 514,283 513,282 513,280 512,279 512,278 511,277 511,276 510,275 509,275 508,274 507,274 506,273 497,273 495,275 494,275 493,276 493,277 491,279 491,281 490,282 490,298 489,299 442,299 441,298 441,254Z" fill="black" /><path d="M 393,253 394,252 416,252 417,253 417,516 418,517 418,519 422,523 424,523 425,524 635,524 636,525 636,548 635,549 423,549 422,550 421,549 395,549 393,547Z" fill="black" /><path d="M 772,249 771,250 770,250 766,254 766,257 765,258 765,259 766,260 766,262 767,263 767,264 769,266 770,266 771,267 773,267 774,268 775,268 776,267 779,267 784,262 784,255 783,254 783,253 781,251 780,251 778,249Z" fill="black" /><path d="M 210,247 209,248 207,248 203,252 203,254 202,255 202,256 203,257 203,259 204,260 204,261 206,263 207,263 208,264 215,264 217,262 268,262 270,264 274,264 275,263 276,263 277,262 278,262 279,261 279,260 280,259 280,252 276,248 275,248 274,247Z" fill="black" /><path d="M 770,229 771,228 779,228 780,229 783,229 784,230 786,230 787,231 788,231 789,232 790,232 792,234 793,234 799,240 799,241 801,243 801,244 802,245 802,246 803,247 803,250 804,251 804,266 803,267 803,269 802,270 802,271 801,272 801,273 800,274 800,275 793,282 792,282 790,284 789,284 788,285 786,285 785,286 783,286 782,287 777,287 776,288 774,288 773,287 767,287 766,286 764,286 763,285 762,285 761,284 760,284 759,283 758,283 750,275 750,274 748,272 748,271 747,270 747,268 746,267 746,264 745,263 745,255 746,254 746,250 747,249 747,247 748,246 748,245 749,244 749,243 750,242 750,241 757,234 758,234 760,232 761,232 762,231 763,231 764,230 766,230 767,229Z" fill="black" /><path d="M 371,227 370,228 368,228 367,229 366,229 365,230 364,230 362,232 361,232 358,235 358,236 356,238 356,239 355,240 355,241 354,242 354,244 353,245 353,556 354,557 354,559 355,560 355,561 356,562 356,563 358,565 358,566 361,569 362,569 364,571 365,571 366,572 367,572 368,573 370,573 371,574 642,574 643,573 646,573 647,572 648,572 649,571 650,571 651,570 652,570 658,564 658,563 659,562 659,561 660,560 660,559 661,558 661,554 662,553 662,247 661,246 661,243 660,242 660,241 659,240 659,239 658,238 658,237 652,231 651,231 649,229 647,229 646,228 644,228 643,227Z" fill="black" /><path d="M 210,211 209,212 208,212 207,213 206,213 204,215 204,216 203,217 203,218 202,219 202,224 203,225 203,227 207,231 208,231 209,232 273,232 274,231 276,231 280,227 280,226 281,225 281,219 280,218 280,216 277,213 276,213 275,212 274,212 273,211Z" fill="black" /><path d="M 750,210 749,211 745,211 744,212 742,212 741,213 740,213 739,214 738,214 733,219 733,220 731,222 731,223 730,224 730,226 729,227 729,292 730,293 730,294 731,295 731,296 732,297 732,298 737,303 738,303 740,305 742,305 743,306 746,306 747,307 802,307 803,306 806,306 807,305 809,305 811,303 812,303 817,298 817,297 819,295 819,293 820,292 820,284 821,283 820,282 821,281 821,269 820,268 821,267 821,232 820,231 820,226 819,225 819,223 818,222 818,221 817,220 817,219 812,214 811,214 810,213 809,213 808,212 807,212 806,211 803,211 802,210Z" fill="black" /><path d="M 202,159 201,160 196,160 195,161 193,161 192,162 190,162 189,163 188,163 187,164 185,164 184,165 183,165 181,167 180,167 179,168 178,168 175,171 174,171 165,180 165,181 162,184 162,185 160,187 160,188 159,189 159,190 158,191 158,192 157,193 157,194 156,195 156,197 155,198 155,200 154,201 154,205 153,206 153,619 163,619 163,219 164,218 164,215 165,214 165,211 166,210 166,209 167,208 167,207 168,206 168,204 170,202 170,201 172,199 172,198 182,188 183,188 186,185 187,185 188,184 189,184 190,183 191,183 192,182 194,182 195,181 197,181 198,180 200,180 201,179 427,179 428,178 439,178 440,179 441,178 497,178 498,179 499,178 515,178 516,179 517,179 518,178 519,178 520,179 521,178 522,178 523,179 524,178 525,179 526,179 527,178 528,179 535,179 536,178 537,179 538,178 539,178 540,179 546,179 547,178 548,179 552,179 553,178 555,178 556,179 558,179 559,178 560,179 561,178 562,178 563,179 564,179 565,178 569,178 570,179 576,179 577,178 579,178 580,179 581,178 582,178 583,179 584,178 592,178 593,179 594,178 599,178 600,179 603,179 604,178 605,178 606,179 607,179 608,178 609,179 611,179 612,178 617,178 618,179 619,179 620,178 621,178 622,179 624,179 625,178 638,178 639,179 640,178 644,178 645,179 646,179 647,178 648,179 649,178 651,178 652,179 653,178 654,178 655,179 656,178 673,178 674,179 675,178 676,179 755,179 756,178 757,179 789,179 790,178 810,178 811,179 819,179 820,180 823,180 824,181 826,181 827,182 829,182 830,183 831,183 832,184 833,184 835,186 836,186 839,189 840,189 846,195 846,196 849,199 849,200 851,202 851,203 852,204 852,205 853,206 853,207 854,208 854,210 855,211 855,213 856,214 856,218 857,219 857,619 867,619 867,205 866,204 866,201 865,200 865,197 864,196 864,195 863,194 863,192 862,191 862,190 861,189 861,188 859,186 859,185 857,183 857,182 847,172 846,172 843,169 842,169 840,167 839,167 838,166 837,166 836,165 835,165 834,164 833,164 832,163 831,163 830,162 828,162 827,161 825,161 824,160 819,160 818,159Z" fill="black" /><path d="M 205,128 206,127 818,127 819,128 825,128 826,129 830,129 831,130 833,130 834,131 836,131 837,132 839,132 840,133 841,133 842,134 844,134 845,135 846,135 847,136 848,136 849,137 850,137 852,139 853,139 854,140 855,140 857,142 858,142 860,144 861,144 865,148 866,148 879,161 879,162 882,165 882,166 884,168 884,169 886,171 886,172 888,174 888,175 889,176 889,177 890,178 890,179 891,180 891,181 892,182 892,184 893,185 893,186 894,187 894,189 895,190 895,192 896,193 896,196 897,197 897,201 898,202 898,210 899,211 899,703 898,704 898,713 897,714 897,718 896,719 896,722 895,723 895,725 894,726 894,727 893,728 893,730 892,731 892,732 891,733 891,734 890,735 890,736 889,737 889,738 887,740 887,741 886,742 886,743 884,745 884,746 882,748 882,749 877,754 877,755 867,765 866,765 862,769 861,769 859,771 858,771 856,773 855,773 854,774 853,774 851,776 849,776 848,777 847,777 846,778 845,778 844,779 842,779 841,780 839,780 838,781 836,781 835,782 832,782 831,783 828,783 827,784 821,784 820,785 624,785 624,787 625,788 625,790 626,791 626,793 627,794 627,796 628,797 628,799 629,800 629,802 630,803 630,805 631,806 631,808 632,809 632,812 633,813 633,815 634,816 634,818 635,819 635,822 636,823 636,824 637,825 637,828 638,829 638,831 639,832 639,834 640,835 640,837 641,838 641,840 642,841 642,844 643,845 676,845 677,846 682,846 683,847 685,847 686,848 688,848 689,849 690,849 692,851 693,851 695,853 696,853 701,858 701,859 703,861 703,862 705,864 705,865 706,866 706,867 707,868 707,870 708,871 708,873 709,874 709,879 710,880 710,886 774,886 775,887 776,887 778,889 779,889 781,891 781,892 782,893 782,894 783,895 783,899 782,900 782,902 781,903 781,904 777,908 776,908 775,909 774,909 773,910 198,910 197,909 195,909 194,908 193,908 189,904 189,903 188,902 188,894 189,893 189,892 193,888 194,888 195,887 196,887 197,886 302,886 303,885 310,885 310,880 311,879 311,875 312,874 312,871 313,870 313,868 314,867 314,866 315,865 315,864 316,863 316,862 319,859 319,858 323,854 324,854 327,851 328,851 329,850 330,850 331,849 332,849 333,848 334,848 335,847 337,847 338,846 343,846 344,845 377,845 378,844 378,842 379,841 379,838 380,837 380,835 381,834 381,832 382,831 382,829 383,828 383,826 384,825 384,824 385,823 385,821 386,820 386,818 387,817 387,814 388,813 388,811 389,810 389,808 390,807 390,805 391,804 391,802 392,801 392,798 393,797 393,795 394,794 394,792 395,791 395,789 396,788 396,787 397,786 397,785 200,785 199,784 193,784 192,783 188,783 187,782 185,782 184,781 182,781 181,780 179,780 178,779 177,779 176,778 174,778 173,777 172,777 171,776 170,776 169,775 168,775 166,773 165,773 164,772 163,772 160,769 159,769 156,766 155,766 142,753 142,752 139,749 139,748 137,746 137,745 135,743 135,742 133,740 133,739 131,737 131,735 130,734 130,733 129,732 129,731 128,730 128,729 127,728 127,726 126,725 126,724 125,723 125,720 124,719 124,717 123,716 123,712 122,711 122,204 123,203 123,199 124,198 124,195 125,194 125,192 126,191 126,189 127,188 127,186 128,185 128,184 129,183 129,181 130,180 130,179 131,178 131,177 133,175 133,174 134,173 134,172 136,170 136,169 137,168 137,167 140,164 140,163 156,147 157,147 161,143 162,143 164,141 165,141 166,140 167,140 169,138 170,138 171,137 172,137 173,136 174,136 175,135 176,135 177,134 179,134 180,133 181,133 182,132 184,132 185,131 187,131 188,130 191,130 192,129 195,129 196,128Z" fill="black" /><path d="M 0,0 0,1023 1023,1023 1023,0Z" fill="black" /></svg>