<?xml version="1.0" standalone="no"?>
<!DOCTYPE svg PUBLIC "-//W3C//DTD SVG 20010904//EN"
 "http://www.w3.org/TR/2001/REC-SVG-20010904/DTD/svg10.dtd">
<svg version="1.0" xmlns="http://www.w3.org/2000/svg"
 width="779.476230pt" height="781.851999pt" viewBox="0 0 779.476230 781.851999"
 preserveAspectRatio="xMidYMid meet">
<metadata>
Created by potrace 1.16, written by Peter Selinger 2001-2019
</metadata>
<g transform="translate(-121.230066,895.848444) scale(0.100000,-0.100000)"
fill="#000000" stroke="none">
<path d="M1999 8950 c-88 -11 -220 -57 -316 -111 -54 -31 -109 -76 -184 -149
-121 -121 -178 -209 -231 -360 l-33 -95 -3 -2545 c-3 -2344 -2 -2551 14 -2615
64 -271 285 -528 539 -626 151 -59 140 -58 1213 -59 783 0 983 -3 979 -12 -3
-7 -27 -78 -52 -158 -26 -80 -69 -210 -95 -290 l-49 -145 -193 -5 c-190 -5
-194 -6 -260 -37 -120 -57 -186 -147 -210 -289 l-11 -72 -60 -6 c-33 -3 -287
-6 -564 -6 -543 0 -541 0 -577 -52 -21 -29 -20 -97 0 -127 38 -54 -147 -51
2957 -51 l2874 0 34 23 c72 48 74 144 4 187 -31 19 -49 20 -352 20 l-319 0
-11 75 c-25 175 -132 295 -292 325 -30 5 -125 10 -213 10 -118 0 -160 3 -163
13 -2 6 -27 86 -55 177 -28 91 -69 219 -91 285 -21 66 -39 123 -39 127 0 4
456 9 1013 10 l1012 3 88 28 c177 55 302 136 417 269 124 143 192 294 210 464
7 67 10 894 8 2574 l-3 2475 -22 76 c-97 339 -383 605 -713 665 -62 11 -609
13 -3130 12 -1680 0 -3085 -4 -3121 -8z m6222 -310 c30 -5 92 -28 138 -51 104
-51 223 -164 265 -250 59 -123 56 19 56 -2231 l0 -2068 -55 0 -55 0 -2 2023
-3 2022 -23 57 c-53 131 -165 238 -291 280 l-66 21 -3078 -1 -3078 -1 -63 -21
c-154 -51 -269 -175 -312 -335 -11 -41 -14 -404 -14 -2047 l0 -1998 -55 0 -55
0 0 2063 c0 1820 2 2070 15 2122 52 199 238 374 440 415 60 12 6171 12 6236 0z
m-125 -527 c50 -27 88 -70 106 -120 15 -43 19 -609 5 -677 -12 -55 -88 -129
-149 -144 -61 -16 -552 -16 -612 -1 -54 13 -110 59 -137 110 -19 38 -20 56
-17 374 l3 333 30 43 c72 101 105 109 455 106 262 -2 277 -3 316 -24z m-5328
-3 c59 -36 70 -110 23 -162 l-29 -33 -335 -3 -335 -3 -30 26 c-58 48 -51 137
12 176 29 17 55 19 346 19 297 0 317 -1 348 -20z m3693 -152 c51 -15 114 -69
142 -122 l22 -41 0 -1565 c0 -1508 -1 -1566 -19 -1600 -26 -49 -64 -88 -111
-113 l-40 -22 -1381 0 -1381 0 -49 30 c-30 19 -60 49 -79 79 l-30 49 -3 1556
c-2 1053 0 1568 7 1592 17 59 64 114 122 143 l53 26 1354 0 c999 0 1365 -3
1393 -12z m-3682 -214 c56 -47 36 -132 -35 -150 -15 -4 -35 -2 -45 5 -24 14
-525 16 -534 1 -8 -13 -71 -13 -97 1 -28 15 -50 72 -39 101 9 25 37 52 61 61
8 3 160 6 337 6 l321 1 31 -26z m-33 -303 c52 -24 84 -74 84 -131 0 -57 -32
-107 -84 -131 -37 -17 -70 -19 -325 -19 -271 0 -287 1 -329 21 -83 41 -104
149 -44 221 47 55 61 57 372 57 257 1 289 -1 326 -18z m14 -536 c32 -17 60
-61 60 -95 0 -37 -30 -81 -65 -96 -52 -21 -633 -20 -675 1 -33 17 -60 61 -60
99 0 28 43 84 74 96 12 5 160 9 329 9 257 1 313 -2 337 -14z m5391 -23 c50
-56 36 -133 -31 -167 -24 -12 -86 -15 -365 -15 -360 0 -374 2 -409 52 -21 29
-20 87 0 117 34 49 53 51 427 48 l349 -2 29 -33z m-5396 -416 c72 -30 85 -129
24 -180 l-31 -26 -327 0 c-358 0 -355 0 -386 60 -19 37 -19 63 1 101 28 55 49
58 382 59 242 0 310 -3 337 -14z m5361 -2 c71 -34 85 -115 30 -170 l-34 -34
-352 0 c-239 0 -358 4 -373 11 -36 19 -57 52 -57 92 0 49 13 73 53 97 30 19
53 20 365 20 288 0 339 -2 368 -16z m-305 -363 c46 -47 37 -106 -22 -136 -57
-30 -129 14 -129 78 0 40 49 87 90 87 22 0 41 -9 61 -29z m-5071 -86 c36 -19
76 -65 89 -104 13 -40 15 -482 2 -550 -10 -51 -35 -87 -82 -119 -33 -23 -35
-23 -334 -20 -296 3 -300 3 -333 26 -18 13 -41 41 -52 62 -18 36 -20 60 -20
311 0 256 1 275 21 316 11 23 35 53 52 65 31 22 43 23 282 28 283 6 340 3 375
-15z m5406 -269 c27 -27 34 -42 34 -74 0 -49 -40 -96 -91 -106 -17 -3 -173 -6
-346 -6 -338 0 -363 3 -398 54 -20 28 -19 96 3 122 34 42 44 43 410 44 l354 0
34 -34z m-701 -465 c17 -10 93 -82 171 -159 l141 -140 154 154 c85 85 165 157
178 161 35 9 85 -20 105 -62 30 -63 18 -84 -143 -248 -80 -81 -148 -150 -150
-153 -3 -2 64 -73 147 -158 139 -141 152 -157 152 -190 0 -48 -42 -95 -93
-103 -38 -6 -38 -6 -194 150 l-157 155 -162 -154 c-149 -141 -166 -154 -199
-154 -54 0 -95 44 -95 101 0 42 4 46 158 201 l157 159 -157 153 c-153 147
-158 154 -158 193 0 59 46 110 100 112 8 1 29 -7 45 -18z m-4666 -318 c63 -53
49 -151 -27 -182 -20 -8 -121 -11 -351 -9 l-323 3 -24 28 c-46 53 -44 109 6
158 l28 29 329 0 329 0 33 -27z m7 -447 c46 -46 48 -101 5 -148 l-29 -33 -326
-3 c-360 -3 -370 -2 -402 59 -21 42 -11 94 26 131 l28 28 332 0 332 0 34 -34z
m5894 -1048 c0 -305 -5 -341 -55 -445 -33 -66 -106 -158 -165 -209 -25 -20
-79 -53 -120 -73 l-75 -36 -3120 -3 c-2030 -1 -3138 1 -3173 8 -94 17 -179 66
-268 155 -58 58 -90 98 -112 146 -55 115 -62 166 -62 460 0 146 3 269 7 272 3
4 1612 7 3575 7 l3568 0 0 -282z m-2758 -1173 c15 -49 51 -166 79 -260 27 -93
78 -254 111 -357 l62 -188 305 -2 c215 -2 305 -6 308 -14 6 -19 -973 -28
-2241 -21 -620 3 -1131 9 -1134 12 -20 19 52 25 324 25 l300 0 98 303 c169
523 189 582 193 590 2 4 356 6 785 5 l781 -3 29 -90z"/>
<path d="M7673 7936 c-122 -40 -194 -128 -209 -258 -19 -164 111 -308 280
-310 124 -2 232 62 276 164 19 44 22 65 18 138 -4 97 -30 154 -90 206 -74 62
-191 88 -275 60z m146 -215 c79 -74 -5 -198 -106 -156 -65 27 -77 113 -21 160
41 35 87 33 127 -4z"/>
<path d="M3942 6233 l3 -1478 140 -5 c77 -3 620 -4 1208 -2 l1067 2 0 120 0
120 -1065 2 -1065 3 -27 28 -28 27 -3 1330 -2 1330 -115 0 -115 0 2 -1477z"/>
<path d="M4427 7703 c-4 -3 -7 -107 -7 -230 l0 -223 240 0 240 0 0 79 c0 91 9
122 46 156 20 19 38 25 71 25 95 0 133 -53 133 -185 l0 -75 240 0 240 0 0 94
c0 87 2 97 26 125 46 55 132 58 183 6 24 -23 26 -33 29 -125 l4 -100 244 0
244 0 0 230 0 230 -963 0 c-530 0 -967 -3 -970 -7z"/>
<path d="M4420 6790 l0 -220 240 0 240 0 0 220 0 220 -240 0 -240 0 0 -220z"/>
<path d="M5142 6793 l3 -218 243 -3 242 -2 0 220 0 220 -245 0 -245 0 2 -217z"/>
<path d="M5870 6790 l0 -220 245 0 245 0 0 220 0 220 -245 0 -245 0 0 -220z"/>
<path d="M4427 6333 c-10 -9 -9 -421 1 -426 4 -3 112 -2 240 1 l232 5 0 213 0
214 -233 0 c-129 0 -237 -3 -240 -7z"/>
<path d="M5148 6124 c-2 -119 -2 -216 -1 -217 1 -1 110 -1 242 1 l241 3 0 214
0 215 -240 0 -239 0 -3 -216z"/>
<path d="M5870 6125 l0 -215 229 0 c126 0 236 -3 245 -6 14 -5 16 17 16 215
l0 221 -245 0 -245 0 0 -215z"/>
<path d="M4422 5448 l3 -223 238 -2 237 -2 0 225 0 224 -240 0 -240 0 2 -222z"/>
<path d="M5149 5593 c-1 -43 -2 -103 -2 -133 -1 -30 0 -95 1 -145 l2 -90 238
0 237 0 3 223 2 222 -240 0 -240 0 -1 -77z"/>
<path d="M5870 5445 l0 -225 243 2 242 3 3 223 2 222 -245 0 -245 0 0 -225z"/>
<path d="M2230 5625 l0 -195 195 0 195 0 0 195 0 195 -195 0 -195 0 0 -195z"/>
<path d="M5053 3489 c-56 -11 -91 -30 -134 -76 -59 -61 -74 -98 -74 -183 0
-57 5 -84 22 -115 72 -136 235 -188 370 -119 95 48 151 152 140 260 -16 156
-166 264 -324 233z"/>
<path d="M1285 1360 c-55 -22 -87 -97 -66 -152 19 -51 64 -68 174 -68 111 0
148 13 172 60 30 59 8 127 -51 155 -35 16 -193 20 -229 5z"/>
<path d="M8704 1356 c-70 -31 -87 -120 -35 -178 29 -33 29 -33 139 -36 129 -4
165 8 189 65 21 51 10 95 -33 132 -34 30 -37 31 -132 31 -59 -1 -109 -6 -128
-14z"/>
<path d="M8157 1349 c-21 -13 -47 -61 -47 -89 0 -38 30 -87 64 -105 41 -22 78
-15 117 25 24 23 29 37 29 75 0 38 -5 52 -29 76 -24 23 -38 29 -73 29 -24 0
-51 -5 -61 -11z"/>
</g>
</svg>
